<svg width="652.9px" height="122px" xmlns="http://www.w3.org/2000/svg" viewBox="-76.47187500000001 14 652.94375 122" style="background: #f2eddb" preserveAspectRatio="xMidYMid"><defs><filter id="editing-vintage" x="-100%" y="-100%" width="300%" height="300%"><feConvolveMatrix in="SourceGraphic" result="extrude" order="2,2" divisor="1" kernelMatrix="1,0,0,1"> </feConvolveMatrix><feFlood flood-color="#900" result="flood-extrude"></feFlood><feComposite operator="in" in="flood-extrude" in2="extrude" result="extrude-color"></feComposite><feOffset dx="1" dy="1" in="extrude-color" result="extrude-offset"></feOffset><feColorMatrix in="SourceGraphic" result="stroke" type="matrix" values="0 0 0 0 0 0 0 0 0 0 0 0 0 0 0 0 1 0 0 0 "></feColorMatrix><feColorMatrix in="SourceGraphic" result="fill" type="matrix" values="0 0 0 0 0 0 0 0 0 0 0 0 0 0 0 1 0 0 1 0 "></feColorMatrix><feConvolveMatrix in="stroke" result="inner-shadow" order="5,5" divisor="1" kernelMatrix="1 0 0 0 0 0 1 0 0 0 0 0 1 0 0 0 0 0 1 0 0 0 0 0 1 "></feConvolveMatrix><feOffset dx="1" dy="1" in="inner-shadow" result="offset"></feOffset><feComposite operator="in" in="offset" in2="SourceAlpha" result="comp"></feComposite><feFlood flood-color="#000" result="flood3"></feFlood><feComposite operator="in" in="flood3" in2="comp" result="comp2"></feComposite><feColorMatrix in="comp2" result="comp3" type="matrix" values="1 0 0 0 0 0 1 0 0 0 0 0 1 0 0 0 0 0 0.5 0 "></feColorMatrix><feFlood flood-color="#f00" result="flood1"></feFlood><feComposite operator="in" in="flood1" in2="fill" result="fill2"></feComposite><feFlood flood-color="#fff" result="flood2"></feFlood><feComposite operator="in" in="flood2" in2="stroke" result="stroke2"></feComposite><feMerge result="obj"><feMergeNode in="extrude-offset"></feMergeNode><feMergeNode in="fill2"></feMergeNode><feMergeNode in="comp3"></feMergeNode></feMerge><feConvolveMatrix in="SourceAlpha" result="shadow" order="2,2" divisor="1" kernelMatrix="1,0,0,1"></feConvolveMatrix><feOffset dx="3" dy="3" in="shadow" result="shadow-offset"></feOffset><feFlood flood-color="#444" result="flood-shadow"></feFlood><feComposite operator="in" in="flood-shadow" in2="shadow-offset" result="shadow-color"></feComposite><feMerge><feMergeNode in="shadow-color"></feMergeNode><feMergeNode in="obj"></feMergeNode></feMerge></filter></defs><g transform="matrix(1,0,0,1,-2,-2)"><g transform="matrix(1.3,0,0,1.5,-70.2,-40.7)" filter="url(#editing-vintage)"><g transform="translate(17.7,104.5)"><path d="M 23 -10.1 L 9.1 -10.1 L 17.2 -52.3 L 31.3 -52.3 L 23 -10.1 Z M 78.8 -8.8 L 78.8 -8.8 L 78.8 -8.8 Q 71 -8.8 71 -14.8 L 71 -14.8 L 71 -14.8 Q 71 -17.4 72.2 -22.5 L 72.2 -22.5 L 72.2 -22.5 Q 73.3 -27.6 73.7 -29.7 L 73.7 -29.7 L 73.7 -29.7 Q 74.6 -34.3 74.6 -35.8 L 74.6 -35.8 L 74.6 -35.8 Q 74.6 -39.1 72.1 -39.1 L 72.1 -39.1 L 72.1 -39.1 Q 70.5 -39.1 69 -36.9 L 69 -36.9 L 69 -36.9 Q 67.5 -34.7 66.8 -30.2 L 66.8 -30.2 L 62.8 -10.1 L 50.3 -8.8 L 53.8 -26.2 L 53.8 -26.2 Q 54.3 -29.1 54.8 -32.4 L 54.8 -32.4 L 54.8 -32.4 Q 55.4 -35.6 55.4 -36.1 L 55.4 -36.1 L 55.4 -36.1 Q 55.4 -39.1 53.2 -39.1 L 53.2 -39.1 L 53.2 -39.1 Q 51.7 -39.1 50.1 -36.9 L 50.1 -36.9 L 50.1 -36.9 Q 48.5 -34.7 47.6 -30.2 L 47.6 -30.2 L 43.7 -10.1 L 31.1 -8.8 L 37.8 -42.7 L 48.3 -44 L 47.2 -37.5 L 47.2 -37.5 Q 48.8 -41 51.9 -42.5 L 51.9 -42.5 L 51.9 -42.5 Q 55 -44 59.8 -44 L 59.8 -44 L 59.8 -44 Q 62.5 -44 64.3 -42.7 L 64.3 -42.7 L 64.3 -42.7 Q 66.1 -41.3 66.7 -39.1 L 66.7 -39.1 L 66.7 -39.1 Q 67.8 -41.4 70.6 -42.7 L 70.6 -42.7 L 70.6 -42.7 Q 73.3 -44 76.8 -44 L 76.8 -44 L 76.8 -44 Q 80.2 -44 81.9 -43.3 L 81.9 -43.3 L 81.9 -43.3 Q 83.6 -42.5 84.6 -41.3 L 84.6 -41.3 L 84.6 -41.3 Q 86.3 -39.1 86.3 -35 L 86.3 -35 L 86.3 -35 Q 86.3 -30.9 84.6 -22.6 L 84.6 -22.6 L 84.6 -22.6 Q 83.7 -18.5 83.7 -17 L 83.7 -17 L 83.7 -17 Q 83.7 -15.5 84.6 -14.6 L 84.6 -14.6 L 84.6 -14.6 Q 85.4 -13.7 86.7 -13.5 L 86.7 -13.5 L 86.7 -13.5 Q 86.1 -11.4 83.9 -10.1 L 83.9 -10.1 L 83.9 -10.1 Q 81.7 -8.8 78.8 -8.8 Z M 94.4 -12 L 94.4 -12 L 94.4 -12 Q 92.9 -13.7 92.3 -16.3 L 92.3 -16.3 L 92.3 -16.3 Q 91.6 -18.9 91.6 -23.2 L 91.6 -23.2 L 91.6 -23.2 Q 91.6 -27.5 93.1 -31.4 L 93.1 -31.4 L 93.1 -31.4 Q 94.5 -35.3 97.2 -38.1 L 97.2 -38.1 L 97.2 -38.1 Q 102.7 -44 111.8 -44 L 111.8 -44 L 111.8 -44 Q 115.1 -44 117.4 -42.9 L 117.4 -42.9 L 128.4 -44 L 123.6 -19 L 123.6 -19 Q 123.5 -18.3 123.5 -16.9 L 123.5 -16.9 L 123.5 -16.9 Q 123.5 -15.5 124.3 -14.6 L 124.3 -14.6 L 124.3 -14.6 Q 125.2 -13.7 126.5 -13.5 L 126.5 -13.5 L 126.5 -13.5 Q 125.8 -11.4 123.5 -10.1 L 123.5 -10.1 L 123.5 -10.1 Q 121.2 -8.8 118.5 -8.8 L 118.5 -8.8 L 118.5 -8.8 Q 115.9 -8.8 114.1 -9.8 L 114.1 -9.8 L 114.1 -9.8 Q 112.4 -10.8 111.9 -12.5 L 111.9 -12.5 L 111.9 -12.5 Q 110.8 -10.9 108.7 -9.8 L 108.7 -9.8 L 108.7 -9.8 Q 106.5 -8.8 103.6 -8.8 L 103.6 -8.8 L 103.6 -8.8 Q 100.7 -8.8 98.3 -9.6 L 98.3 -9.6 L 98.3 -9.6 Q 95.9 -10.3 94.4 -12 Z M 107.9 -38 L 107.9 -38 L 107.9 -38 Q 107.2 -36.8 106.6 -34.9 L 106.6 -34.9 L 106.6 -34.9 Q 105.9 -32.9 104.9 -27.7 L 104.9 -27.7 L 104.9 -27.7 Q 103.8 -22.5 103.8 -18.8 L 103.8 -18.8 L 103.8 -18.8 Q 103.8 -15.1 104.4 -14 L 104.4 -14 L 104.4 -14 Q 105 -12.9 106 -12.9 L 106 -12.9 L 106 -12.9 Q 108 -12.9 109.5 -14.9 L 109.5 -14.9 L 109.5 -14.9 Q 111 -16.8 111.6 -20.3 L 111.6 -20.3 L 115 -39 L 115 -39 Q 113.7 -40.2 112.1 -40.2 L 112.1 -40.2 L 112.1 -40.2 Q 110.5 -40.2 109.6 -39.7 L 109.6 -39.7 L 109.6 -39.7 Q 108.7 -39.1 107.9 -38 Z M 136.1 -36.8 L 136.1 -36.8 L 136.1 -36.8 Q 138.3 -39.9 141.6 -42 L 141.6 -42 L 141.6 -42 Q 144.9 -44 148.9 -44 L 148.9 -44 L 148.9 -44 Q 153 -44 154.9 -42.7 L 154.9 -42.7 L 167.4 -44 L 163.1 -19.4 L 163.1 -19.4 Q 160.8 -6.9 156.1 -2 L 156.1 -2 L 156.1 -2 Q 151.6 2.7 142.7 2.7 L 142.7 2.7 L 142.7 2.7 Q 136 2.7 132.2 0.6 L 132.2 0.6 L 132.2 0.6 Q 128.3 -1.5 128.3 -5 L 128.3 -5 L 128.3 -5 Q 128.3 -7.7 130.3 -9.2 L 130.3 -9.2 L 130.3 -9.2 Q 132.3 -10.7 135.4 -10.7 L 135.4 -10.7 L 135.4 -10.7 Q 138 -10.7 140.1 -9.4 L 140.1 -9.4 L 140.1 -9.4 Q 141.3 -8.8 141.9 -7.9 L 141.9 -7.9 L 141.9 -7.9 Q 140.4 -6.6 140.4 -4.5 L 140.4 -4.5 L 140.4 -4.5 Q 140.4 -1.8 143 -1.8 L 143 -1.8 L 143 -1.8 Q 147.3 -1.8 149.7 -11.9 L 149.7 -11.9 L 149.7 -11.9 Q 150.4 -14.6 151 -17.4 L 151 -17.4 L 151 -17.4 Q 148.1 -13.9 141.6 -13.9 L 141.6 -13.9 L 141.6 -13.9 Q 137 -13.9 134.4 -16 L 134.4 -16 L 134.4 -16 Q 131.8 -18.2 131.8 -23.3 L 131.8 -23.3 L 131.8 -23.3 Q 131.8 -26.5 132.9 -30.1 L 132.9 -30.1 L 132.9 -30.1 Q 134 -33.8 136.1 -36.8 Z M 144.4 -23.1 L 144.4 -23.1 L 144.4 -23.1 Q 144.4 -18.8 146.7 -18.8 L 146.7 -18.8 L 146.7 -18.8 Q 148.2 -18.8 149.7 -20.5 L 149.7 -20.5 L 149.7 -20.5 Q 150.8 -21.8 151.3 -23.8 L 151.3 -23.8 L 154.6 -40.2 L 154.6 -40.2 Q 154.2 -40.3 153.9 -40.4 L 153.9 -40.4 L 153.9 -40.4 Q 153.3 -40.7 152.4 -40.7 L 152.4 -40.7 L 152.4 -40.7 Q 148.5 -40.7 146.2 -34.3 L 146.2 -34.3 L 146.2 -34.3 Q 144.4 -29.3 144.4 -23.1 Z M 195.8 -20.9 L 195.8 -20.9 L 195.8 -20.9 Q 197.4 -19.8 197.4 -17.4 L 197.4 -17.4 L 197.4 -17.4 Q 197.4 -15 196.2 -13.5 L 196.2 -13.5 L 196.2 -13.5 Q 195 -11.9 193 -10.9 L 193 -10.9 L 193 -10.9 Q 188.9 -8.8 184.5 -8.8 L 184.5 -8.8 L 184.5 -8.8 Q 180.1 -8.8 177.5 -9.8 L 177.5 -9.8 L 177.5 -9.8 Q 174.9 -10.7 173.2 -12.5 L 173.2 -12.5 L 173.2 -12.5 Q 169.8 -15.9 169.8 -22.1 L 169.8 -22.1 L 169.8 -22.1 Q 169.8 -31.8 175 -37.7 L 175 -37.7 L 175 -37.7 Q 180.7 -44 190.5 -44 L 190.5 -44 L 190.5 -44 Q 196.5 -44 199.6 -41.4 L 199.6 -41.4 L 199.6 -41.4 Q 201.8 -39.5 201.8 -36.4 L 201.8 -36.4 L 201.8 -36.4 Q 201.8 -25.1 182.3 -25.1 L 182.3 -25.1 L 182.3 -25.1 Q 182.1 -23.5 182.1 -22.1 L 182.1 -22.1 L 182.1 -22.1 Q 182.1 -19.1 183.4 -18 L 183.4 -18 L 183.4 -18 Q 184.7 -16.9 187.1 -16.9 L 187.1 -16.9 L 187.1 -16.9 Q 189.6 -16.9 192.2 -18 L 192.2 -18 L 192.2 -18 Q 194.8 -19.1 195.8 -20.9 Z M 182.8 -27.9 L 182.8 -27.9 L 182.8 -27.9 Q 187.3 -27.9 190 -30.7 L 190 -30.7 L 190 -30.7 Q 192.6 -33.4 192.6 -37.7 L 192.6 -37.7 L 192.6 -37.7 Q 192.6 -39.1 192 -39.9 L 192 -39.9 L 192 -39.9 Q 191.5 -40.7 190.4 -40.7 L 190.4 -40.7 L 190.4 -40.7 Q 189.3 -40.7 188.4 -40.3 L 188.4 -40.3 L 188.4 -40.3 Q 187.5 -39.9 186.5 -38.5 L 186.5 -38.5 L 186.5 -38.5 Q 184.1 -35.3 182.8 -27.9 Z M 223.1 -32.5 L 223.1 -32.5 L 223.1 -32.5 Q 224 -34.9 224 -37 L 224 -37 L 224 -37 Q 224 -40.7 220.9 -40.7 L 220.9 -40.7 L 220.9 -40.7 Q 219.3 -40.7 218 -39.3 L 218 -39.3 L 218 -39.3 Q 216.7 -37.9 216.7 -36.1 L 216.7 -36.1 L 216.7 -36.1 Q 216.7 -34.8 217.7 -33.8 L 217.7 -33.8 L 217.7 -33.8 Q 219.2 -32.4 223 -30.1 L 223 -30.1 L 223 -30.1 Q 226.8 -27.7 228.2 -25.9 L 228.2 -25.9 L 228.2 -25.9 Q 229.6 -24 229.6 -21.4 L 229.6 -21.4 L 229.6 -21.4 Q 229.6 -18.8 228.4 -16.4 L 228.4 -16.4 L 228.4 -16.4 Q 227.1 -14.1 224.9 -12.4 L 224.9 -12.4 L 224.9 -12.4 Q 220.1 -8.8 212.4 -8.8 L 212.4 -8.8 L 212.4 -8.8 Q 208.3 -8.8 205.1 -11 L 205.1 -11 L 205.1 -11 Q 201.9 -13.1 201.9 -15.6 L 201.9 -15.6 L 201.9 -15.6 Q 201.9 -18.1 203.7 -19.6 L 203.7 -19.6 L 203.7 -19.6 Q 205.5 -21 208.2 -21 L 208.2 -21 L 208.2 -21 Q 210.9 -21 212.5 -20 L 212.5 -20 L 212.5 -20 Q 211.7 -17.9 211.7 -16.5 L 211.7 -16.5 L 211.7 -16.5 Q 211.7 -12.3 215.3 -12.3 L 215.3 -12.3 L 215.3 -12.3 Q 216.8 -12.3 217.9 -13.2 L 217.9 -13.2 L 217.9 -13.2 Q 218.9 -14.2 218.9 -15.8 L 218.9 -15.8 L 218.9 -15.8 Q 218.9 -19.1 213.4 -22.6 L 213.4 -22.6 L 213.4 -22.6 Q 208.9 -25.5 207.9 -26.7 L 207.9 -26.7 L 207.9 -26.7 Q 206.1 -28.7 206.1 -31.3 L 206.1 -31.3 L 206.1 -31.3 Q 206.1 -33.8 207.4 -36.3 L 207.4 -36.3 L 207.4 -36.3 Q 208.6 -38.7 210.8 -40.4 L 210.8 -40.4 L 210.8 -40.4 Q 215.5 -44 223.6 -44 L 223.6 -44 L 223.6 -44 Q 227.8 -44 230.2 -42.3 L 230.2 -42.3 L 230.2 -42.3 Q 232.7 -40.7 232.7 -37.9 L 232.7 -37.9 L 232.7 -37.9 Q 232.7 -35 231 -33.4 L 231 -33.4 L 231 -33.4 Q 229.3 -31.8 226.2 -31.8 L 226.2 -31.8 L 226.2 -31.8 Q 224.1 -31.8 223.1 -32.5 Z M 252.8 -36.8 L 252.8 -36.8 L 252.8 -36.8 Q 255 -39.9 258.3 -42 L 258.3 -42 L 258.3 -42 Q 261.6 -44 265.6 -44 L 265.6 -44 L 265.6 -44 Q 269.6 -44 271.6 -42.7 L 271.6 -42.7 L 284.1 -44 L 279.7 -19.4 L 279.7 -19.4 Q 277.5 -6.9 272.8 -2 L 272.8 -2 L 272.8 -2 Q 268.2 2.7 259.4 2.7 L 259.4 2.7 L 259.4 2.7 Q 252.7 2.7 248.8 0.6 L 248.8 0.6 L 248.8 0.6 Q 245 -1.5 245 -5 L 245 -5 L 245 -5 Q 245 -7.7 247 -9.2 L 247 -9.2 L 247 -9.2 Q 249 -10.7 252 -10.7 L 252 -10.7 L 252 -10.7 Q 254.7 -10.7 256.8 -9.4 L 256.8 -9.4 L 256.8 -9.4 Q 258 -8.8 258.6 -7.9 L 258.6 -7.9 L 258.6 -7.9 Q 257.1 -6.6 257.1 -4.5 L 257.1 -4.5 L 257.1 -4.5 Q 257.1 -1.8 259.6 -1.8 L 259.6 -1.8 L 259.6 -1.8 Q 263.9 -1.8 266.4 -11.9 L 266.4 -11.9 L 266.4 -11.9 Q 267.1 -14.6 267.6 -17.4 L 267.6 -17.4 L 267.6 -17.4 Q 264.8 -13.9 258.2 -13.9 L 258.2 -13.9 L 258.2 -13.9 Q 253.7 -13.9 251.1 -16 L 251.1 -16 L 251.1 -16 Q 248.4 -18.2 248.4 -23.3 L 248.4 -23.3 L 248.4 -23.3 Q 248.4 -26.5 249.5 -30.1 L 249.5 -30.1 L 249.5 -30.1 Q 250.6 -33.8 252.8 -36.8 Z M 261.1 -23.1 L 261.1 -23.1 L 261.1 -23.1 Q 261.1 -18.8 263.4 -18.8 L 263.4 -18.8 L 263.4 -18.8 Q 264.9 -18.8 266.4 -20.5 L 266.4 -20.5 L 266.4 -20.5 Q 267.5 -21.8 268 -23.8 L 268 -23.8 L 271.2 -40.2 L 271.2 -40.2 Q 270.9 -40.3 270.6 -40.4 L 270.6 -40.4 L 270.6 -40.4 Q 270 -40.7 269.1 -40.7 L 269.1 -40.7 L 269.1 -40.7 Q 265.2 -40.7 262.9 -34.3 L 262.9 -34.3 L 262.9 -34.3 Q 261.1 -29.3 261.1 -23.1 Z M 289.4 -12 L 289.4 -12 L 289.4 -12 Q 287.9 -13.7 287.2 -16.3 L 287.2 -16.3 L 287.2 -16.3 Q 286.5 -18.9 286.5 -23.2 L 286.5 -23.2 L 286.5 -23.2 Q 286.5 -27.5 288 -31.4 L 288 -31.4 L 288 -31.4 Q 289.5 -35.3 292.2 -38.1 L 292.2 -38.1 L 292.2 -38.1 Q 297.7 -44 306.8 -44 L 306.8 -44 L 306.8 -44 Q 310 -44 312.4 -42.9 L 312.4 -42.9 L 323.3 -44 L 318.6 -19 L 318.6 -19 Q 318.4 -18.3 318.4 -16.9 L 318.4 -16.9 L 318.4 -16.9 Q 318.4 -15.5 319.3 -14.6 L 319.3 -14.6 L 319.3 -14.6 Q 320.1 -13.7 321.4 -13.5 L 321.4 -13.5 L 321.4 -13.5 Q 320.8 -11.4 318.4 -10.1 L 318.4 -10.1 L 318.4 -10.1 Q 316.1 -8.8 313.5 -8.8 L 313.5 -8.8 L 313.5 -8.8 Q 310.8 -8.8 309.1 -9.8 L 309.1 -9.8 L 309.1 -9.8 Q 307.3 -10.8 306.8 -12.5 L 306.8 -12.5 L 306.8 -12.5 Q 305.8 -10.9 303.6 -9.8 L 303.6 -9.8 L 303.6 -9.8 Q 301.4 -8.8 298.5 -8.8 L 298.5 -8.8 L 298.5 -8.8 Q 295.6 -8.8 293.2 -9.6 L 293.2 -9.6 L 293.2 -9.6 Q 290.9 -10.3 289.4 -12 Z M 302.9 -38 L 302.9 -38 L 302.9 -38 Q 302.1 -36.8 301.5 -34.9 L 301.5 -34.9 L 301.5 -34.9 Q 300.9 -32.9 299.8 -27.7 L 299.8 -27.7 L 299.8 -27.7 Q 298.8 -22.5 298.8 -18.8 L 298.8 -18.8 L 298.8 -18.8 Q 298.8 -15.1 299.3 -14 L 299.3 -14 L 299.3 -14 Q 299.9 -12.9 300.9 -12.9 L 300.9 -12.9 L 300.9 -12.9 Q 303 -12.9 304.5 -14.9 L 304.5 -14.9 L 304.5 -14.9 Q 306 -16.8 306.6 -20.3 L 306.6 -20.3 L 310 -39 L 310 -39 Q 308.6 -40.2 307 -40.2 L 307 -40.2 L 307 -40.2 Q 305.5 -40.2 304.5 -39.7 L 304.5 -39.7 L 304.5 -39.7 Q 303.6 -39.1 302.9 -38 Z M 342.1 -13.6 L 342.1 -13.6 L 342.1 -13.6 Q 340.1 -8.8 333.8 -8.8 L 333.8 -8.8 L 333.8 -8.8 Q 330.6 -8.8 328.5 -11 L 328.5 -11 L 328.5 -11 Q 326.8 -12.9 326.8 -15 L 326.8 -15 L 326.8 -15 Q 326.8 -19.8 329.1 -30.3 L 329.1 -30.3 L 333.8 -54.9 L 346.8 -56.2 L 340.5 -23.8 L 340.5 -23.8 Q 339.5 -19 339.5 -17.4 L 339.5 -17.4 L 339.5 -17.4 Q 339.5 -13.7 342.1 -13.6 Z M 362.8 -13.6 L 362.8 -13.6 L 362.8 -13.6 Q 360.8 -8.8 354.5 -8.8 L 354.5 -8.8 L 354.5 -8.8 Q 351.3 -8.8 349.2 -11 L 349.2 -11 L 349.2 -11 Q 347.6 -12.9 347.6 -15 L 347.6 -15 L 347.6 -15 Q 347.6 -19.8 349.8 -30.3 L 349.8 -30.3 L 354.5 -54.9 L 367.5 -56.2 L 361.3 -23.8 L 361.3 -23.8 Q 360.2 -19 360.2 -17.4 L 360.2 -17.4 L 360.2 -17.4 Q 360.2 -13.7 362.8 -13.6 Z M 394.2 -20.9 L 394.2 -20.9 L 394.2 -20.9 Q 395.8 -19.8 395.8 -17.4 L 395.8 -17.4 L 395.8 -17.4 Q 395.8 -15 394.6 -13.5 L 394.6 -13.5 L 394.6 -13.5 Q 393.3 -11.9 391.4 -10.9 L 391.4 -10.9 L 391.4 -10.9 Q 387.3 -8.8 382.8 -8.8 L 382.8 -8.8 L 382.8 -8.8 Q 378.4 -8.8 375.8 -9.8 L 375.8 -9.8 L 375.8 -9.8 Q 373.2 -10.7 371.5 -12.5 L 371.5 -12.5 L 371.5 -12.5 Q 368.1 -15.9 368.1 -22.1 L 368.1 -22.1 L 368.1 -22.1 Q 368.1 -31.8 373.4 -37.7 L 373.4 -37.7 L 373.4 -37.7 Q 379 -44 388.8 -44 L 388.8 -44 L 388.8 -44 Q 394.9 -44 397.9 -41.4 L 397.9 -41.4 L 397.9 -41.4 Q 400.1 -39.5 400.1 -36.4 L 400.1 -36.4 L 400.1 -36.4 Q 400.1 -25.1 380.7 -25.1 L 380.7 -25.1 L 380.7 -25.1 Q 380.4 -23.5 380.4 -22.1 L 380.4 -22.1 L 380.4 -22.1 Q 380.4 -19.1 381.7 -18 L 381.7 -18 L 381.7 -18 Q 383 -16.9 385.5 -16.9 L 385.5 -16.9 L 385.5 -16.9 Q 387.9 -16.9 390.5 -18 L 390.5 -18 L 390.5 -18 Q 393.1 -19.1 394.2 -20.9 Z M 381.1 -27.9 L 381.1 -27.9 L 381.1 -27.9 Q 385.7 -27.9 388.3 -30.7 L 388.3 -30.7 L 388.3 -30.7 Q 390.9 -33.4 390.9 -37.7 L 390.9 -37.7 L 390.9 -37.7 Q 390.9 -39.1 390.4 -39.9 L 390.4 -39.9 L 390.4 -39.9 Q 389.8 -40.7 388.7 -40.7 L 388.7 -40.7 L 388.7 -40.7 Q 387.6 -40.7 386.7 -40.3 L 386.7 -40.3 L 386.7 -40.3 Q 385.8 -39.9 384.8 -38.5 L 384.8 -38.5 L 384.8 -38.5 Q 382.5 -35.3 381.1 -27.9 Z M 422.3 -28.1 L 422.3 -28.1 L 422.3 -28.1 Q 424.6 -32.2 424.6 -36.3 L 424.6 -36.3 L 424.6 -36.3 Q 424.6 -39.1 422.7 -39.1 L 422.7 -39.1 L 422.7 -39.1 Q 421.1 -39.1 419.5 -36.5 L 419.5 -36.5 L 419.5 -36.5 Q 417.9 -33.8 417.3 -30.4 L 417.3 -30.4 L 414 -10.1 L 400.8 -8.8 L 407.3 -42.7 L 417.9 -44 L 416.7 -37.5 L 416.7 -37.5 Q 419.8 -44 426.9 -44 L 426.9 -44 L 426.9 -44 Q 430.6 -44 432.6 -42.1 L 432.6 -42.1 L 432.6 -42.1 Q 434.6 -40.2 434.6 -36.2 L 434.6 -36.2 L 434.6 -36.2 Q 434.6 -32.3 432 -29.8 L 432 -29.8 L 432 -29.8 Q 429.4 -27.3 425 -27.3 L 425 -27.3 L 425 -27.3 Q 423.1 -27.3 422.3 -28.1 Z M 456 -17.3 L 456 -17.3 L 456 -17.3 Q 452.7 -13.9 446.6 -13.9 L 446.6 -13.9 L 446.6 -13.9 Q 439 -13.9 437.4 -19.4 L 437.4 -19.4 L 437.4 -19.4 Q 436.9 -21.1 436.9 -22.9 L 436.9 -22.9 L 436.9 -22.9 Q 436.9 -24.8 437.2 -26.7 L 437.2 -26.7 L 440.3 -42.7 L 453.2 -44 L 449.7 -25.4 L 449.7 -25.4 Q 449.6 -24.5 449.4 -23.7 L 449.4 -23.7 L 449.4 -23.7 Q 449.2 -22.8 449.2 -21.8 L 449.2 -21.8 L 449.2 -21.8 Q 449.2 -20.9 449.5 -20.3 L 449.5 -20.3 L 449.5 -20.3 Q 449.9 -19.7 450.3 -19.3 L 450.3 -19.3 L 450.3 -19.3 Q 451.1 -18.8 452.4 -18.8 L 452.4 -18.8 L 452.4 -18.8 Q 453.8 -18.8 455 -20.5 L 455 -20.5 L 455 -20.5 Q 456.2 -22.1 456.8 -25 L 456.8 -25 L 460.3 -42.7 L 472.9 -44 L 468.1 -18.9 L 468.1 -18.9 Q 465.7 -6.6 460.9 -1.7 L 460.9 -1.7 L 460.9 -1.7 Q 458.4 0.8 455.1 1.8 L 455.1 1.8 L 455.1 1.8 Q 451.9 2.8 447.7 2.8 L 447.7 2.8 L 447.7 2.8 Q 441 2.8 437.2 0.7 L 437.2 0.7 L 437.2 0.7 Q 433.3 -1.4 433.3 -5 L 433.3 -5 L 433.3 -5 Q 433.3 -7.6 435.3 -9.1 L 435.3 -9.1 L 435.3 -9.1 Q 437.3 -10.6 440.4 -10.6 L 440.4 -10.6 L 440.4 -10.6 Q 443.1 -10.6 445.1 -9.4 L 445.1 -9.4 L 445.1 -9.4 Q 446.3 -8.7 446.9 -7.8 L 446.9 -7.8 L 446.9 -7.8 Q 445.4 -6.6 445.4 -4.5 L 445.4 -4.5 L 445.4 -4.5 Q 445.4 -1.6 448 -1.6 L 448 -1.6 L 448 -1.6 Q 452.2 -1.6 454.7 -11.4 L 454.7 -11.4 L 454.7 -11.4 Q 455.4 -14.2 456 -17.3 Z" fill="#ff0000" stroke="#00ff00" stroke-width="1.8"></path></g></g><g transform="matrix(1.3,0,0,1.5,-70.2,-40.7)"><g transform="translate(17.7,104.5)"><path d="M 23 -10.1 L 9.1 -10.1 L 17.2 -52.3 L 31.3 -52.3 L 23 -10.1 Z M 78.8 -8.8 L 78.8 -8.8 L 78.8 -8.8 Q 71 -8.8 71 -14.8 L 71 -14.8 L 71 -14.8 Q 71 -17.4 72.2 -22.5 L 72.2 -22.5 L 72.2 -22.5 Q 73.3 -27.6 73.7 -29.7 L 73.7 -29.7 L 73.7 -29.7 Q 74.6 -34.3 74.6 -35.8 L 74.6 -35.8 L 74.6 -35.8 Q 74.6 -39.1 72.1 -39.1 L 72.1 -39.1 L 72.1 -39.1 Q 70.5 -39.1 69 -36.9 L 69 -36.9 L 69 -36.9 Q 67.5 -34.7 66.8 -30.2 L 66.8 -30.2 L 62.8 -10.1 L 50.3 -8.8 L 53.8 -26.2 L 53.8 -26.2 Q 54.3 -29.1 54.8 -32.4 L 54.8 -32.4 L 54.8 -32.4 Q 55.4 -35.6 55.4 -36.1 L 55.4 -36.1 L 55.4 -36.1 Q 55.4 -39.1 53.2 -39.1 L 53.2 -39.1 L 53.2 -39.1 Q 51.7 -39.1 50.1 -36.9 L 50.1 -36.9 L 50.1 -36.9 Q 48.5 -34.7 47.6 -30.2 L 47.6 -30.2 L 43.7 -10.1 L 31.1 -8.8 L 37.8 -42.7 L 48.3 -44 L 47.2 -37.5 L 47.2 -37.5 Q 48.8 -41 51.9 -42.5 L 51.9 -42.5 L 51.9 -42.5 Q 55 -44 59.8 -44 L 59.8 -44 L 59.8 -44 Q 62.5 -44 64.3 -42.7 L 64.3 -42.7 L 64.3 -42.7 Q 66.1 -41.3 66.7 -39.1 L 66.7 -39.1 L 66.7 -39.1 Q 67.8 -41.4 70.6 -42.7 L 70.6 -42.7 L 70.6 -42.7 Q 73.3 -44 76.8 -44 L 76.8 -44 L 76.8 -44 Q 80.2 -44 81.9 -43.3 L 81.9 -43.3 L 81.9 -43.3 Q 83.6 -42.5 84.6 -41.3 L 84.6 -41.3 L 84.6 -41.3 Q 86.3 -39.1 86.3 -35 L 86.3 -35 L 86.3 -35 Q 86.3 -30.9 84.6 -22.6 L 84.6 -22.6 L 84.6 -22.6 Q 83.7 -18.5 83.7 -17 L 83.7 -17 L 83.7 -17 Q 83.7 -15.5 84.6 -14.6 L 84.6 -14.6 L 84.6 -14.6 Q 85.4 -13.7 86.7 -13.5 L 86.7 -13.5 L 86.7 -13.5 Q 86.1 -11.4 83.9 -10.1 L 83.9 -10.1 L 83.9 -10.1 Q 81.7 -8.8 78.8 -8.8 Z M 94.4 -12 L 94.4 -12 L 94.4 -12 Q 92.9 -13.7 92.3 -16.3 L 92.3 -16.3 L 92.3 -16.3 Q 91.6 -18.9 91.6 -23.2 L 91.6 -23.2 L 91.6 -23.2 Q 91.6 -27.5 93.1 -31.4 L 93.1 -31.4 L 93.1 -31.4 Q 94.5 -35.3 97.2 -38.1 L 97.2 -38.1 L 97.2 -38.1 Q 102.7 -44 111.8 -44 L 111.8 -44 L 111.8 -44 Q 115.1 -44 117.4 -42.9 L 117.4 -42.9 L 128.4 -44 L 123.6 -19 L 123.6 -19 Q 123.5 -18.3 123.5 -16.9 L 123.5 -16.9 L 123.5 -16.9 Q 123.5 -15.5 124.3 -14.6 L 124.3 -14.6 L 124.3 -14.6 Q 125.2 -13.7 126.5 -13.5 L 126.5 -13.5 L 126.5 -13.5 Q 125.8 -11.4 123.5 -10.1 L 123.5 -10.1 L 123.5 -10.1 Q 121.2 -8.8 118.5 -8.8 L 118.5 -8.8 L 118.5 -8.8 Q 115.9 -8.8 114.1 -9.8 L 114.1 -9.8 L 114.1 -9.8 Q 112.4 -10.8 111.9 -12.5 L 111.9 -12.5 L 111.9 -12.5 Q 110.8 -10.9 108.7 -9.8 L 108.7 -9.8 L 108.7 -9.8 Q 106.5 -8.8 103.6 -8.8 L 103.6 -8.8 L 103.6 -8.8 Q 100.7 -8.8 98.3 -9.6 L 98.3 -9.6 L 98.3 -9.6 Q 95.9 -10.3 94.4 -12 Z M 107.9 -38 L 107.9 -38 L 107.9 -38 Q 107.2 -36.8 106.6 -34.9 L 106.6 -34.9 L 106.6 -34.9 Q 105.9 -32.9 104.9 -27.7 L 104.9 -27.7 L 104.9 -27.7 Q 103.8 -22.5 103.8 -18.8 L 103.8 -18.8 L 103.8 -18.8 Q 103.8 -15.1 104.4 -14 L 104.4 -14 L 104.4 -14 Q 105 -12.9 106 -12.9 L 106 -12.9 L 106 -12.9 Q 108 -12.9 109.5 -14.9 L 109.5 -14.9 L 109.5 -14.9 Q 111 -16.8 111.6 -20.3 L 111.6 -20.3 L 115 -39 L 115 -39 Q 113.7 -40.2 112.1 -40.2 L 112.1 -40.2 L 112.1 -40.2 Q 110.5 -40.2 109.6 -39.7 L 109.6 -39.7 L 109.6 -39.7 Q 108.7 -39.1 107.9 -38 Z M 136.1 -36.8 L 136.1 -36.8 L 136.1 -36.8 Q 138.3 -39.9 141.6 -42 L 141.6 -42 L 141.6 -42 Q 144.9 -44 148.9 -44 L 148.9 -44 L 148.9 -44 Q 153 -44 154.9 -42.7 L 154.9 -42.7 L 167.4 -44 L 163.1 -19.4 L 163.1 -19.4 Q 160.8 -6.9 156.1 -2 L 156.1 -2 L 156.1 -2 Q 151.6 2.7 142.7 2.7 L 142.7 2.7 L 142.7 2.7 Q 136 2.7 132.2 0.6 L 132.2 0.6 L 132.2 0.6 Q 128.3 -1.5 128.3 -5 L 128.3 -5 L 128.3 -5 Q 128.3 -7.7 130.3 -9.2 L 130.3 -9.2 L 130.3 -9.2 Q 132.3 -10.7 135.4 -10.7 L 135.4 -10.7 L 135.4 -10.7 Q 138 -10.7 140.1 -9.4 L 140.1 -9.4 L 140.1 -9.4 Q 141.3 -8.8 141.9 -7.9 L 141.9 -7.9 L 141.9 -7.9 Q 140.4 -6.6 140.4 -4.5 L 140.4 -4.5 L 140.4 -4.5 Q 140.4 -1.8 143 -1.8 L 143 -1.8 L 143 -1.8 Q 147.3 -1.8 149.7 -11.9 L 149.7 -11.9 L 149.7 -11.9 Q 150.4 -14.6 151 -17.4 L 151 -17.4 L 151 -17.4 Q 148.1 -13.9 141.6 -13.9 L 141.6 -13.9 L 141.6 -13.9 Q 137 -13.9 134.4 -16 L 134.4 -16 L 134.4 -16 Q 131.8 -18.2 131.8 -23.3 L 131.8 -23.3 L 131.8 -23.3 Q 131.8 -26.5 132.9 -30.1 L 132.9 -30.1 L 132.9 -30.1 Q 134 -33.8 136.1 -36.8 Z M 144.4 -23.1 L 144.4 -23.1 L 144.4 -23.1 Q 144.4 -18.8 146.7 -18.8 L 146.7 -18.8 L 146.7 -18.8 Q 148.2 -18.8 149.7 -20.5 L 149.7 -20.5 L 149.7 -20.5 Q 150.8 -21.8 151.3 -23.8 L 151.3 -23.8 L 154.6 -40.2 L 154.6 -40.2 Q 154.2 -40.3 153.9 -40.4 L 153.9 -40.4 L 153.9 -40.4 Q 153.3 -40.7 152.4 -40.7 L 152.4 -40.7 L 152.4 -40.7 Q 148.5 -40.7 146.2 -34.3 L 146.2 -34.3 L 146.2 -34.3 Q 144.4 -29.3 144.4 -23.1 Z M 195.8 -20.9 L 195.8 -20.9 L 195.8 -20.9 Q 197.4 -19.8 197.4 -17.4 L 197.4 -17.4 L 197.4 -17.4 Q 197.4 -15 196.2 -13.5 L 196.2 -13.5 L 196.2 -13.5 Q 195 -11.9 193 -10.9 L 193 -10.9 L 193 -10.9 Q 188.9 -8.8 184.5 -8.8 L 184.5 -8.8 L 184.5 -8.8 Q 180.1 -8.8 177.5 -9.8 L 177.5 -9.8 L 177.5 -9.8 Q 174.9 -10.7 173.2 -12.5 L 173.2 -12.5 L 173.2 -12.5 Q 169.8 -15.9 169.8 -22.1 L 169.8 -22.1 L 169.8 -22.1 Q 169.8 -31.8 175 -37.7 L 175 -37.7 L 175 -37.7 Q 180.7 -44 190.5 -44 L 190.5 -44 L 190.5 -44 Q 196.5 -44 199.6 -41.4 L 199.6 -41.4 L 199.6 -41.4 Q 201.8 -39.5 201.8 -36.4 L 201.8 -36.4 L 201.8 -36.4 Q 201.8 -25.1 182.3 -25.1 L 182.3 -25.1 L 182.3 -25.1 Q 182.1 -23.5 182.1 -22.1 L 182.1 -22.1 L 182.1 -22.1 Q 182.1 -19.1 183.4 -18 L 183.4 -18 L 183.4 -18 Q 184.7 -16.9 187.1 -16.9 L 187.1 -16.9 L 187.1 -16.9 Q 189.6 -16.9 192.2 -18 L 192.2 -18 L 192.2 -18 Q 194.8 -19.1 195.8 -20.9 Z M 182.8 -27.9 L 182.8 -27.9 L 182.8 -27.9 Q 187.3 -27.9 190 -30.7 L 190 -30.7 L 190 -30.7 Q 192.6 -33.4 192.6 -37.7 L 192.6 -37.7 L 192.6 -37.7 Q 192.6 -39.1 192 -39.9 L 192 -39.9 L 192 -39.9 Q 191.5 -40.7 190.4 -40.7 L 190.4 -40.7 L 190.4 -40.7 Q 189.3 -40.7 188.4 -40.3 L 188.4 -40.3 L 188.4 -40.3 Q 187.5 -39.9 186.5 -38.5 L 186.5 -38.5 L 186.5 -38.5 Q 184.1 -35.3 182.8 -27.9 Z M 223.1 -32.5 L 223.1 -32.5 L 223.1 -32.5 Q 224 -34.9 224 -37 L 224 -37 L 224 -37 Q 224 -40.7 220.9 -40.7 L 220.9 -40.7 L 220.9 -40.7 Q 219.3 -40.7 218 -39.3 L 218 -39.3 L 218 -39.3 Q 216.7 -37.9 216.7 -36.1 L 216.7 -36.1 L 216.7 -36.1 Q 216.7 -34.8 217.7 -33.8 L 217.7 -33.8 L 217.7 -33.8 Q 219.2 -32.4 223 -30.1 L 223 -30.1 L 223 -30.1 Q 226.8 -27.7 228.2 -25.9 L 228.2 -25.9 L 228.2 -25.9 Q 229.6 -24 229.6 -21.4 L 229.6 -21.4 L 229.6 -21.4 Q 229.6 -18.8 228.4 -16.4 L 228.4 -16.4 L 228.4 -16.4 Q 227.1 -14.1 224.9 -12.4 L 224.9 -12.4 L 224.9 -12.4 Q 220.1 -8.8 212.4 -8.8 L 212.4 -8.8 L 212.4 -8.8 Q 208.3 -8.8 205.1 -11 L 205.1 -11 L 205.1 -11 Q 201.9 -13.1 201.9 -15.6 L 201.9 -15.6 L 201.9 -15.6 Q 201.9 -18.1 203.7 -19.6 L 203.7 -19.6 L 203.7 -19.6 Q 205.5 -21 208.2 -21 L 208.2 -21 L 208.2 -21 Q 210.9 -21 212.5 -20 L 212.5 -20 L 212.5 -20 Q 211.7 -17.9 211.7 -16.5 L 211.7 -16.5 L 211.7 -16.5 Q 211.7 -12.3 215.3 -12.3 L 215.3 -12.3 L 215.3 -12.3 Q 216.8 -12.3 217.9 -13.2 L 217.9 -13.2 L 217.9 -13.2 Q 218.9 -14.2 218.9 -15.8 L 218.9 -15.8 L 218.9 -15.8 Q 218.9 -19.1 213.4 -22.6 L 213.4 -22.6 L 213.4 -22.6 Q 208.9 -25.5 207.9 -26.7 L 207.9 -26.7 L 207.9 -26.7 Q 206.1 -28.7 206.1 -31.3 L 206.1 -31.3 L 206.1 -31.3 Q 206.1 -33.8 207.4 -36.3 L 207.4 -36.3 L 207.4 -36.3 Q 208.6 -38.7 210.8 -40.4 L 210.8 -40.4 L 210.8 -40.4 Q 215.5 -44 223.6 -44 L 223.6 -44 L 223.6 -44 Q 227.8 -44 230.2 -42.3 L 230.2 -42.3 L 230.2 -42.3 Q 232.7 -40.7 232.7 -37.9 L 232.7 -37.9 L 232.7 -37.9 Q 232.7 -35 231 -33.4 L 231 -33.4 L 231 -33.4 Q 229.3 -31.8 226.2 -31.8 L 226.2 -31.8 L 226.2 -31.8 Q 224.1 -31.8 223.1 -32.5 Z M 252.8 -36.8 L 252.8 -36.8 L 252.8 -36.8 Q 255 -39.9 258.3 -42 L 258.3 -42 L 258.3 -42 Q 261.6 -44 265.6 -44 L 265.6 -44 L 265.6 -44 Q 269.6 -44 271.6 -42.7 L 271.6 -42.7 L 284.1 -44 L 279.7 -19.4 L 279.7 -19.4 Q 277.5 -6.9 272.8 -2 L 272.8 -2 L 272.8 -2 Q 268.2 2.7 259.4 2.7 L 259.4 2.7 L 259.4 2.7 Q 252.7 2.7 248.8 0.6 L 248.8 0.6 L 248.8 0.6 Q 245 -1.5 245 -5 L 245 -5 L 245 -5 Q 245 -7.7 247 -9.2 L 247 -9.2 L 247 -9.2 Q 249 -10.7 252 -10.7 L 252 -10.7 L 252 -10.7 Q 254.7 -10.7 256.8 -9.4 L 256.8 -9.4 L 256.8 -9.4 Q 258 -8.8 258.6 -7.9 L 258.6 -7.9 L 258.6 -7.9 Q 257.1 -6.6 257.1 -4.5 L 257.1 -4.5 L 257.1 -4.5 Q 257.1 -1.8 259.6 -1.8 L 259.6 -1.8 L 259.6 -1.8 Q 263.9 -1.8 266.4 -11.9 L 266.4 -11.9 L 266.4 -11.9 Q 267.1 -14.6 267.6 -17.4 L 267.6 -17.4 L 267.6 -17.4 Q 264.8 -13.9 258.2 -13.9 L 258.2 -13.9 L 258.2 -13.9 Q 253.7 -13.9 251.1 -16 L 251.1 -16 L 251.1 -16 Q 248.4 -18.2 248.4 -23.3 L 248.4 -23.3 L 248.4 -23.3 Q 248.4 -26.5 249.5 -30.1 L 249.5 -30.1 L 249.5 -30.1 Q 250.6 -33.8 252.8 -36.8 Z M 261.1 -23.1 L 261.1 -23.1 L 261.1 -23.1 Q 261.1 -18.8 263.4 -18.8 L 263.4 -18.8 L 263.4 -18.8 Q 264.9 -18.8 266.4 -20.5 L 266.4 -20.5 L 266.4 -20.5 Q 267.5 -21.8 268 -23.8 L 268 -23.8 L 271.2 -40.2 L 271.2 -40.2 Q 270.9 -40.3 270.6 -40.4 L 270.6 -40.4 L 270.6 -40.4 Q 270 -40.7 269.1 -40.7 L 269.1 -40.7 L 269.1 -40.7 Q 265.2 -40.7 262.9 -34.3 L 262.9 -34.3 L 262.9 -34.3 Q 261.1 -29.3 261.1 -23.1 Z M 289.4 -12 L 289.4 -12 L 289.4 -12 Q 287.9 -13.7 287.2 -16.3 L 287.2 -16.3 L 287.2 -16.3 Q 286.5 -18.9 286.5 -23.2 L 286.5 -23.2 L 286.5 -23.2 Q 286.5 -27.5 288 -31.4 L 288 -31.4 L 288 -31.4 Q 289.5 -35.3 292.2 -38.1 L 292.2 -38.1 L 292.2 -38.1 Q 297.7 -44 306.8 -44 L 306.8 -44 L 306.8 -44 Q 310 -44 312.4 -42.9 L 312.4 -42.9 L 323.3 -44 L 318.6 -19 L 318.6 -19 Q 318.4 -18.3 318.4 -16.9 L 318.4 -16.9 L 318.4 -16.9 Q 318.4 -15.5 319.3 -14.6 L 319.3 -14.6 L 319.3 -14.6 Q 320.1 -13.7 321.4 -13.5 L 321.4 -13.5 L 321.4 -13.5 Q 320.8 -11.4 318.4 -10.1 L 318.4 -10.1 L 318.4 -10.1 Q 316.1 -8.8 313.5 -8.8 L 313.5 -8.8 L 313.5 -8.8 Q 310.8 -8.8 309.1 -9.8 L 309.1 -9.8 L 309.1 -9.8 Q 307.3 -10.8 306.8 -12.5 L 306.8 -12.5 L 306.8 -12.5 Q 305.8 -10.9 303.6 -9.8 L 303.6 -9.8 L 303.6 -9.8 Q 301.4 -8.8 298.5 -8.8 L 298.5 -8.8 L 298.5 -8.8 Q 295.6 -8.8 293.2 -9.6 L 293.2 -9.6 L 293.2 -9.6 Q 290.9 -10.3 289.4 -12 Z M 302.9 -38 L 302.9 -38 L 302.9 -38 Q 302.1 -36.8 301.5 -34.9 L 301.5 -34.9 L 301.5 -34.9 Q 300.9 -32.9 299.8 -27.7 L 299.8 -27.7 L 299.8 -27.7 Q 298.8 -22.5 298.8 -18.8 L 298.8 -18.8 L 298.8 -18.8 Q 298.8 -15.1 299.3 -14 L 299.3 -14 L 299.3 -14 Q 299.9 -12.9 300.9 -12.9 L 300.9 -12.9 L 300.9 -12.9 Q 303 -12.9 304.5 -14.9 L 304.5 -14.9 L 304.5 -14.9 Q 306 -16.8 306.6 -20.3 L 306.6 -20.3 L 310 -39 L 310 -39 Q 308.6 -40.2 307 -40.2 L 307 -40.2 L 307 -40.2 Q 305.5 -40.2 304.5 -39.7 L 304.5 -39.7 L 304.5 -39.7 Q 303.6 -39.1 302.9 -38 Z M 342.1 -13.6 L 342.1 -13.6 L 342.1 -13.6 Q 340.1 -8.8 333.8 -8.8 L 333.8 -8.8 L 333.8 -8.8 Q 330.6 -8.8 328.5 -11 L 328.5 -11 L 328.5 -11 Q 326.8 -12.9 326.8 -15 L 326.8 -15 L 326.8 -15 Q 326.8 -19.8 329.1 -30.3 L 329.1 -30.3 L 333.8 -54.9 L 346.8 -56.2 L 340.5 -23.8 L 340.5 -23.8 Q 339.5 -19 339.5 -17.4 L 339.5 -17.4 L 339.5 -17.4 Q 339.5 -13.7 342.1 -13.6 Z M 362.8 -13.6 L 362.8 -13.6 L 362.8 -13.6 Q 360.8 -8.8 354.5 -8.8 L 354.5 -8.8 L 354.5 -8.8 Q 351.3 -8.8 349.2 -11 L 349.2 -11 L 349.2 -11 Q 347.6 -12.9 347.6 -15 L 347.6 -15 L 347.6 -15 Q 347.6 -19.8 349.8 -30.3 L 349.8 -30.3 L 354.5 -54.9 L 367.5 -56.2 L 361.3 -23.8 L 361.3 -23.8 Q 360.2 -19 360.2 -17.4 L 360.2 -17.4 L 360.2 -17.4 Q 360.2 -13.7 362.8 -13.6 Z M 394.2 -20.9 L 394.2 -20.9 L 394.2 -20.9 Q 395.8 -19.8 395.8 -17.4 L 395.8 -17.4 L 395.8 -17.4 Q 395.8 -15 394.6 -13.5 L 394.6 -13.5 L 394.6 -13.5 Q 393.3 -11.9 391.4 -10.9 L 391.4 -10.9 L 391.4 -10.9 Q 387.3 -8.8 382.8 -8.8 L 382.8 -8.8 L 382.8 -8.8 Q 378.4 -8.8 375.8 -9.8 L 375.8 -9.8 L 375.8 -9.8 Q 373.2 -10.7 371.5 -12.5 L 371.5 -12.5 L 371.5 -12.5 Q 368.1 -15.9 368.1 -22.1 L 368.1 -22.1 L 368.1 -22.1 Q 368.1 -31.8 373.4 -37.7 L 373.4 -37.7 L 373.4 -37.7 Q 379 -44 388.8 -44 L 388.8 -44 L 388.8 -44 Q 394.9 -44 397.9 -41.4 L 397.9 -41.4 L 397.9 -41.4 Q 400.1 -39.5 400.1 -36.4 L 400.1 -36.4 L 400.1 -36.4 Q 400.1 -25.1 380.7 -25.1 L 380.7 -25.1 L 380.7 -25.1 Q 380.4 -23.5 380.4 -22.1 L 380.4 -22.1 L 380.4 -22.1 Q 380.4 -19.1 381.7 -18 L 381.7 -18 L 381.7 -18 Q 383 -16.9 385.5 -16.9 L 385.5 -16.9 L 385.5 -16.9 Q 387.9 -16.9 390.5 -18 L 390.5 -18 L 390.5 -18 Q 393.1 -19.1 394.2 -20.9 Z M 381.1 -27.9 L 381.1 -27.9 L 381.1 -27.9 Q 385.7 -27.9 388.3 -30.7 L 388.3 -30.7 L 388.3 -30.7 Q 390.9 -33.4 390.9 -37.7 L 390.9 -37.7 L 390.9 -37.7 Q 390.9 -39.1 390.4 -39.9 L 390.4 -39.9 L 390.4 -39.9 Q 389.8 -40.7 388.7 -40.7 L 388.7 -40.7 L 388.7 -40.7 Q 387.6 -40.7 386.7 -40.3 L 386.7 -40.3 L 386.7 -40.3 Q 385.8 -39.9 384.8 -38.5 L 384.8 -38.5 L 384.8 -38.5 Q 382.5 -35.3 381.1 -27.9 Z M 422.3 -28.1 L 422.3 -28.1 L 422.3 -28.1 Q 424.6 -32.2 424.6 -36.3 L 424.6 -36.3 L 424.6 -36.3 Q 424.6 -39.1 422.7 -39.1 L 422.7 -39.1 L 422.7 -39.1 Q 421.1 -39.1 419.5 -36.5 L 419.5 -36.5 L 419.5 -36.5 Q 417.9 -33.8 417.3 -30.4 L 417.3 -30.4 L 414 -10.1 L 400.8 -8.8 L 407.3 -42.7 L 417.9 -44 L 416.7 -37.5 L 416.7 -37.5 Q 419.8 -44 426.9 -44 L 426.9 -44 L 426.9 -44 Q 430.6 -44 432.6 -42.1 L 432.6 -42.1 L 432.6 -42.1 Q 434.6 -40.2 434.6 -36.2 L 434.6 -36.2 L 434.6 -36.2 Q 434.6 -32.3 432 -29.8 L 432 -29.8 L 432 -29.8 Q 429.4 -27.3 425 -27.3 L 425 -27.3 L 425 -27.3 Q 423.1 -27.3 422.3 -28.1 Z M 456 -17.3 L 456 -17.3 L 456 -17.3 Q 452.7 -13.9 446.6 -13.9 L 446.6 -13.9 L 446.6 -13.9 Q 439 -13.9 437.4 -19.4 L 437.4 -19.4 L 437.4 -19.4 Q 436.9 -21.1 436.9 -22.9 L 436.9 -22.9 L 436.9 -22.9 Q 436.9 -24.8 437.2 -26.7 L 437.2 -26.7 L 440.3 -42.7 L 453.2 -44 L 449.7 -25.4 L 449.7 -25.4 Q 449.6 -24.5 449.4 -23.7 L 449.4 -23.7 L 449.4 -23.7 Q 449.2 -22.8 449.2 -21.8 L 449.2 -21.8 L 449.2 -21.8 Q 449.2 -20.9 449.5 -20.3 L 449.5 -20.3 L 449.5 -20.3 Q 449.9 -19.7 450.3 -19.3 L 450.3 -19.3 L 450.3 -19.3 Q 451.1 -18.8 452.4 -18.8 L 452.4 -18.8 L 452.4 -18.8 Q 453.8 -18.8 455 -20.5 L 455 -20.5 L 455 -20.5 Q 456.2 -22.1 456.8 -25 L 456.8 -25 L 460.3 -42.7 L 472.9 -44 L 468.1 -18.9 L 468.1 -18.9 Q 465.7 -6.6 460.9 -1.7 L 460.9 -1.7 L 460.9 -1.7 Q 458.4 0.8 455.1 1.8 L 455.1 1.8 L 455.1 1.8 Q 451.9 2.8 447.7 2.8 L 447.7 2.8 L 447.7 2.8 Q 441 2.8 437.2 0.7 L 437.2 0.7 L 437.2 0.7 Q 433.3 -1.4 433.3 -5 L 433.3 -5 L 433.3 -5 Q 433.3 -7.6 435.3 -9.1 L 435.3 -9.1 L 435.3 -9.1 Q 437.3 -10.6 440.4 -10.6 L 440.4 -10.6 L 440.4 -10.6 Q 443.1 -10.6 445.1 -9.4 L 445.1 -9.4 L 445.1 -9.4 Q 446.3 -8.7 446.9 -7.8 L 446.9 -7.8 L 446.9 -7.8 Q 445.4 -6.6 445.4 -4.5 L 445.4 -4.5 L 445.4 -4.5 Q 445.4 -1.6 448 -1.6 L 448 -1.6 L 448 -1.6 Q 452.2 -1.6 454.7 -11.4 L 454.7 -11.4 L 454.7 -11.4 Q 455.4 -14.2 456 -17.3 Z" fill="none" stroke="#ffffff" stroke-width="2.1"></path></g></g></g><style>text {
  font-size: 64px;
  font-family: Arial Black;
  dominant-baseline: central;
  text-anchor: middle;
}</style></svg>